<?xml version="1.0" encoding="utf-8"?>
<!-- Generator: Adobe Illustrator 19.0.0, SVG Export Plug-In . SVG Version: 6.00 Build 0)  -->
<svg version="1.1" id="Layer_1" xmlns="http://www.w3.org/2000/svg" xmlns:xlink="http://www.w3.org/1999/xlink" x="0px" y="0px"
	 viewBox="0 0 145 145" style="enable-background:new 0 0 145 145;" xml:space="preserve">
<style type="text/css">
	.st0{fill-rule:evenodd;clip-rule:evenodd;fill:#FFFFFF;}
</style>
<path id="XMLID_2_" class="st0" d="M72.5,145C32.5,145,0,112.5,0,72.5S32.5,0,72.5,0c40,0,72.5,32.5,72.5,72.5S112.5,145,72.5,145z
	 M109,32.1l-14.1,0c0,0-0.8,0.7-1.7,1.5L72.5,51.9L51.9,33.6c-0.9-0.8-1.7-1.5-1.7-1.5H36v66.3c0.5,0.4,1.2,1.1,2.1,1.8l14.3,12.7
	V57.7l0.7,0l10.1,8.2c0.9,0.7,1.4,1.6,1.4,2.6v55.2l7.9,7l7.9-7V68.5c0-0.9,0.5-1.8,1.6-2.6l10.6-8.2v55.3l14.3-12.7
	c0.8-0.7,1.6-1.4,2.1-1.8V32.1z"/>
</svg>
